<svg width="743" height="600" viewBox="0 0 743 600" fill="none" xmlns="http://www.w3.org/2000/svg">
<g opacity="0.07">
<path style="mix-blend-mode:color-dodge" d="M366.09 410.618C398.579 485.203 485.977 519.575 561.295 487.373C579.138 479.841 595.312 468.847 608.882 455.025C622.452 441.204 633.149 424.829 640.354 406.848C647.56 388.867 651.13 369.636 650.861 350.266C650.591 330.896 646.485 311.772 638.782 293.999C606.292 219.414 518.895 185.042 443.577 217.244C425.731 224.773 409.555 235.766 395.983 249.587C382.411 263.407 371.712 279.782 364.507 297.764C357.301 315.746 353.731 334.979 354.003 354.35C354.274 373.72 358.382 392.845 366.09 410.618ZM593.623 313.449C598.777 325.337 601.523 338.129 601.704 351.085C601.885 364.041 599.497 376.905 594.677 388.932C589.858 400.959 582.703 411.912 573.626 421.157C564.55 430.402 553.731 437.756 541.795 442.793C517.661 453.17 490.406 453.596 465.959 443.978C441.511 434.361 421.849 415.478 411.248 391.436C406.095 379.55 403.349 366.76 403.169 353.806C402.988 340.852 405.377 327.99 410.196 315.965C415.016 303.94 422.17 292.989 431.247 283.747C440.323 274.504 451.142 267.153 463.076 262.118C487.208 251.747 514.458 251.321 538.902 260.933C563.347 270.545 583.012 289.417 593.623 313.449Z" fill="#C4C4C4"/>
<path style="mix-blend-mode:color-dodge" d="M476.227 278.621C491.921 272.686 509.193 272.412 525.068 277.845C540.943 283.278 554.426 294.078 563.196 308.385L595.98 294.347C583.311 271.425 562.725 253.906 538.075 245.07C513.425 236.233 486.4 236.684 462.058 246.339L476.227 278.621Z" fill="black"/>
<path style="mix-blend-mode:color-dodge" d="M621.827 321.486C628.945 348.911 626.285 377.961 614.303 403.636C602.321 429.312 581.768 450.007 556.179 462.163L580.285 517.7C620.67 499.242 652.924 466.664 670.982 426.09C689.039 385.517 691.657 339.743 678.342 297.375L621.827 321.486Z" fill="black"/>
<path style="mix-blend-mode:color-dodge" d="M341.475 441.454C362.552 478.463 395.735 507.079 435.435 522.483C475.136 537.888 518.93 539.141 559.446 526.031L535.099 470.12C509.6 477.082 482.543 475.711 457.878 466.207C433.212 456.703 412.229 439.563 397.99 417.289L341.475 441.454Z" fill="black"/>
<path style="mix-blend-mode:color-dodge" d="M657.558 257.671C636.48 220.662 603.298 192.046 563.597 176.642C523.897 161.237 480.102 159.984 439.586 173.093L463.933 229.005C489.428 222.04 516.482 223.41 541.144 232.915C565.806 242.419 586.784 259.561 601.016 281.836L657.558 257.671Z" fill="black"/>
<path style="mix-blend-mode:color-dodge" d="M280.781 422.138L350.876 392.213C341.926 360.311 343.714 326.35 355.964 295.564C368.215 264.778 390.248 238.877 418.667 221.852L388.374 152.491C341.605 177.61 305.182 218.41 285.504 267.725C265.827 317.039 264.155 371.712 280.781 422.138Z" fill="black"/>
<path style="mix-blend-mode:color-dodge" d="M366.09 410.618C398.579 485.203 485.977 519.575 561.295 487.373C579.138 479.841 595.312 468.847 608.882 455.025C622.452 441.204 633.149 424.829 640.354 406.848C647.56 388.867 651.13 369.636 650.861 350.266C650.591 330.896 646.485 311.772 638.782 293.999C606.292 219.414 518.895 185.042 443.577 217.244C425.731 224.773 409.555 235.766 395.983 249.587C382.411 263.407 371.712 279.782 364.507 297.764C357.301 315.746 353.731 334.979 354.003 354.35C354.274 373.72 358.382 392.845 366.09 410.618ZM593.623 313.449C598.777 325.337 601.523 338.129 601.704 351.085C601.885 364.041 599.497 376.905 594.677 388.932C589.858 400.959 582.703 411.912 573.626 421.157C564.55 430.402 553.731 437.756 541.795 442.793C517.661 453.17 490.406 453.596 465.959 443.978C441.511 434.361 421.849 415.478 411.248 391.436C406.095 379.55 403.349 366.76 403.169 353.806C402.988 340.852 405.377 327.99 410.196 315.965C415.016 303.94 422.17 292.989 431.247 283.747C440.323 274.504 451.142 267.153 463.076 262.118C487.208 251.747 514.458 251.321 538.902 260.933C563.347 270.545 583.012 289.417 593.623 313.449Z" fill="#C4C4C4"/>
<path style="mix-blend-mode:color-dodge" d="M476.227 278.621C491.921 272.686 509.193 272.412 525.068 277.845C540.943 283.278 554.426 294.078 563.196 308.385L595.98 294.347C583.311 271.425 562.725 253.906 538.075 245.07C513.425 236.233 486.4 236.684 462.058 246.339L476.227 278.621Z" fill="black"/>
<path style="mix-blend-mode:color-dodge" d="M403.775 406.76C416.922 429.859 437.626 447.72 462.401 457.333C487.175 466.947 514.505 467.725 539.787 459.537L524.573 424.71C508.661 429.049 491.779 428.19 476.389 422.258C461 416.325 447.908 405.629 439.024 391.731L403.775 406.76Z" fill="black"/>
<path style="mix-blend-mode:color-dodge" d="M325.94 402.822L379.268 380.023C372.473 355.714 373.849 329.846 383.184 306.395C392.518 282.944 409.295 263.209 430.935 250.223L407.9 197.366C372.265 216.505 344.515 247.594 329.525 285.169C314.535 322.745 313.266 364.403 325.94 402.822Z" fill="black"/>
<path style="mix-blend-mode:color-dodge" d="M695.672 347.098C696.716 237.632 607.98 148.044 497.467 146.999C386.955 145.955 296.584 233.881 295.459 343.347C294.334 452.813 383.178 542.427 493.664 543.445C604.149 544.463 694.627 456.59 695.672 347.098ZM361.75 343.963C362.447 270.745 422.926 211.966 496.851 212.69C570.776 213.413 630.13 273.29 629.407 346.642C628.684 419.995 568.232 478.666 494.307 477.916C420.382 477.166 361.027 417.208 361.75 343.963Z" fill="black"/>
<path style="mix-blend-mode:color-dodge" d="M487.477 450.08C464.957 448.954 443.543 439.97 426.959 424.689C410.375 409.409 399.67 388.798 396.704 366.44L348.492 365.985C351.498 401.048 367.247 433.794 392.759 458.028C418.271 482.262 451.777 496.305 486.941 497.5L487.477 450.08Z" fill="black"/>
<path style="mix-blend-mode:color-dodge" d="M331.564 318.539C337.986 280.808 357.267 246.464 386.132 221.338C414.997 196.213 451.666 181.854 489.914 180.702L490.691 99.1249C365.286 101.509 262.246 196.026 248.613 317.709L331.564 318.539Z" fill="black"/>
<path style="mix-blend-mode:color-dodge" d="M743 322.397C732.286 205.671 638.943 112.279 521.011 100.384L520.234 182.416C555.405 187.542 587.992 203.857 613.172 228.947C638.352 254.037 654.789 286.568 660.049 321.727L743 322.397Z" fill="black"/>
<path style="mix-blend-mode:color-dodge" d="M252.336 377.987C263.05 494.713 356.394 588.105 474.299 600L475.075 517.967C439.908 512.84 407.325 496.524 382.149 471.434C356.973 446.344 340.542 413.814 335.287 378.657L252.336 377.987Z" fill="black"/>
<path style="mix-blend-mode:color-dodge" d="M695.672 347.098C696.716 237.632 607.98 148.044 497.467 146.999C386.955 145.955 296.584 233.881 295.459 343.347C294.334 452.813 383.178 542.427 493.664 543.445C604.149 544.463 694.627 456.59 695.672 347.098ZM361.75 343.963C362.447 270.745 422.926 211.966 496.851 212.69C570.776 213.413 630.13 273.29 629.407 346.642C628.684 419.995 568.232 478.666 494.307 477.916C420.382 477.166 361.027 417.208 361.75 343.963Z" fill="black"/>
<path style="mix-blend-mode:color-dodge" d="M487.477 450.08C464.957 448.954 443.543 439.97 426.959 424.689C410.375 409.409 399.67 388.798 396.704 366.44L348.492 365.985C351.498 401.048 367.247 433.794 392.759 458.028C418.271 482.262 451.777 496.305 486.941 497.5L487.477 450.08Z" fill="black"/>
<path style="mix-blend-mode:color-dodge" d="M647.139 331.479C643.663 295.912 627.955 262.654 602.697 237.38C577.438 212.106 544.194 196.382 508.636 192.892L508.127 244.088C530.07 247.272 550.404 257.438 566.12 273.081C581.837 288.723 592.1 309.012 595.391 330.943L647.139 331.479Z" fill="black"/>
<path style="mix-blend-mode:color-dodge" d="M740.857 378.389L662.593 377.746C657.518 411.466 641.573 442.607 617.182 466.432C592.791 490.258 561.289 505.466 527.466 509.743L526.716 587.301C639.371 578.005 729.769 489.918 740.857 378.389Z" fill="black"/>
<path style="mix-blend-mode:color-dodge" d="M256.541 10.5822L245.881 0L219.016 26.603L192.151 0L181.464 10.5822L219.016 47.7675L256.541 10.5822Z" fill="black"/>
<path style="mix-blend-mode:color-dodge" d="M256.541 47.3387L245.881 36.7565L219.016 63.3594L192.151 36.7565L181.464 47.3387L219.016 84.5239L256.541 47.3387Z" fill="black"/>
<path style="mix-blend-mode:color-dodge" d="M256.541 84.0954L245.881 73.4863L219.016 100.089L192.151 73.4863L181.464 84.0954L219.016 121.281L256.541 84.0954Z" fill="black"/>
<path style="mix-blend-mode:color-dodge" d="M256.541 120.825L245.881 110.243L219.016 136.846L192.151 110.243L181.464 120.825L219.016 158.01L256.541 120.825Z" fill="black"/>
<path style="mix-blend-mode:color-dodge" d="M256.541 157.582L245.881 146.999L219.016 173.602L192.151 146.999L181.464 157.582L219.016 194.767L256.541 157.582Z" fill="black"/>
<path style="mix-blend-mode:color-dodge" d="M256.541 194.311L245.881 183.729L219.016 210.332L192.151 183.729L181.464 194.311L219.016 231.497L256.541 194.311Z" fill="black"/>
<path style="mix-blend-mode:color-dodge" d="M256.541 231.068L245.881 220.486L219.016 247.089L192.151 220.486L181.464 231.068L219.016 268.253L256.541 231.068Z" fill="black"/>
<path style="mix-blend-mode:color-dodge" d="M160.01 422.138C159.978 419.413 160.757 416.74 162.247 414.459C163.738 412.178 165.872 410.391 168.38 409.327C170.888 408.262 173.655 407.966 176.331 408.478C179.007 408.99 181.47 410.287 183.408 412.202C185.346 414.118 186.671 416.566 187.214 419.236C187.757 421.907 187.495 424.678 186.46 427.199C185.425 429.719 183.664 431.875 181.401 433.393C179.138 434.91 176.475 435.72 173.751 435.721C171.957 435.731 170.178 435.388 168.517 434.711C166.855 434.035 165.344 433.037 164.068 431.776C162.792 430.514 161.777 429.014 161.081 427.36C160.384 425.707 160.021 423.932 160.01 422.138Z" fill="black"/>
<path style="mix-blend-mode:color-dodge" d="M106.682 422.138C106.651 419.418 107.427 416.749 108.912 414.47C110.398 412.192 112.526 410.405 115.028 409.337C117.529 408.269 120.291 407.968 122.964 408.471C125.637 408.975 128.101 410.26 130.042 412.165C131.984 414.07 133.317 416.508 133.873 419.171C134.428 421.834 134.181 424.602 133.162 427.125C132.144 429.647 130.399 431.811 128.151 433.341C125.902 434.871 123.25 435.699 120.53 435.721C118.727 435.745 116.937 435.413 115.263 434.742C113.59 434.072 112.065 433.077 110.778 431.814C109.491 430.551 108.466 429.046 107.763 427.385C107.06 425.725 106.693 423.941 106.682 422.138Z" fill="black"/>
<path style="mix-blend-mode:color-dodge" d="M53.3278 422.138C53.296 419.409 54.0774 416.731 55.5725 414.448C57.0676 412.164 59.2086 410.378 61.7227 409.316C64.2367 408.255 67.0099 407.966 69.6887 408.486C72.3675 409.007 74.8307 410.314 76.7641 412.24C78.6976 414.167 80.0138 416.625 80.5449 419.302C81.0761 421.98 80.7982 424.755 79.7466 427.274C78.695 429.792 76.9174 431.941 74.6404 433.445C72.3633 434.95 69.69 435.742 66.9611 435.721C63.3589 435.707 59.9074 434.273 57.3553 431.73C54.8031 429.187 53.356 425.741 53.3278 422.138Z" fill="black"/>
<path style="mix-blend-mode:color-dodge" d="M0 422.138C0.156221 418.601 1.67072 415.261 4.22793 412.814C6.78515 410.367 10.1878 409.001 13.727 409.001C17.2662 409.001 20.6689 410.367 23.2261 412.814C25.7833 415.261 27.2978 418.601 27.454 422.138C27.4435 423.932 27.0798 425.707 26.3835 427.36C25.6873 429.014 24.6723 430.514 23.3963 431.776C22.1204 433.037 20.6086 434.035 18.9473 434.711C17.2859 435.388 15.5075 435.731 13.7136 435.721C11.921 435.731 10.1439 435.388 8.48409 434.711C6.82423 434.034 5.31419 433.036 4.04041 431.774C2.76662 430.512 1.7541 429.012 1.06079 427.358C0.367488 425.705 0.00701251 423.931 0 422.138H0Z" fill="black"/>
</g>
</svg>
